# xmcd
#
# Track frame offsets: 
#        150
#        17546
#        32376
#        48490
#        66517
#        83720
#        98734
#        106942
#        123377
#        138813
#        155727
#        173520
#
# Disc length: 2638 seconds
#
# Revision: 0
# Processed by: cddbd v1.5.2PL0 Copyright (c) Steve Scherf et al.
# Submitted via: ExactAudioCopy v1.0b1
#
DISCID=8e0a4c0c
DTITLE=Mary Mary - Something Big
DYEAR=2011
DGENRE=Gospel
TTITLE0=Something Big
TTITLE1=Something Bigger
TTITLE2=Blind
TTITLE3=It Is Well
TTITLE4=Never Wave My Flag
TTITLE5=Walking
TTITLE6=Slow Walk
TTITLE7=Survive
TTITLE8=Are You Ready
TTITLE9=Catch Me
TTITLE10=Sitting With Me
TTITLE11=Homecoming Glory
EXTD=
EXTT0=
EXTT1=
EXTT2=
EXTT3=
EXTT4=
EXTT5=
EXTT6=
EXTT7=
EXTT8=
EXTT9=
EXTT10=
EXTT11=
PLAYORDER=
